TITLE ""
FILE "DISC2Track22.mp3" MP3
  TRACK 01 AUDIO
    TITLE "DISC2Track22_01"
    INDEX 01 00:00:00
  TRACK 02 AUDIO
    TITLE "DISC2Track22_02"
    INDEX 01 00:05:21
  TRACK 03 AUDIO
    TITLE "DISC2Track22_03"
    INDEX 01 00:05:39
  TRACK 04 AUDIO
    TITLE "DISC2Track22_04"
    INDEX 01 00:08:61
  TRACK 05 AUDIO
    TITLE "DISC2Track22_05"
    INDEX 01 00:12:00
  TRACK 06 AUDIO
    TITLE "DISC2Track22_06"
    INDEX 01 00:14:65
  TRACK 07 AUDIO
    TITLE "DISC2Track22_07"
    INDEX 01 00:15:31
  TRACK 08 AUDIO
    TITLE "DISC2Track22_08"
    INDEX 01 00:19:04
  TRACK 09 AUDIO
    TITLE "DISC2Track22_09"
    INDEX 01 00:22:00
  TRACK 10 AUDIO
    TITLE "DISC2Track22_10"
    INDEX 01 00:24:72
  TRACK 11 AUDIO
    TITLE "DISC2Track22_11"
    INDEX 01 00:25:20
  TRACK 12 AUDIO
    TITLE "DISC2Track22_12"
    INDEX 01 00:29:49
  TRACK 13 AUDIO
    TITLE "DISC2Track22_13"
    INDEX 01 00:33:14
  TRACK 14 AUDIO
    TITLE "DISC2Track22_14"
    INDEX 01 00:36:43
  TRACK 15 AUDIO
    TITLE "DISC2Track22_15"
    INDEX 01 00:36:67
  TRACK 16 AUDIO
    TITLE "DISC2Track22_16"
    INDEX 01 00:40:73
  TRACK 17 AUDIO
    TITLE "DISC2Track22_17"
    INDEX 01 00:44:55
  TRACK 18 AUDIO
    TITLE "DISC2Track22_18"
    INDEX 01 00:48:33
  TRACK 19 AUDIO
    TITLE "DISC2Track22_19"
    INDEX 01 00:48:56
  TRACK 20 AUDIO
    TITLE "DISC2Track22_20"
    INDEX 01 00:53:18
  TRACK 21 AUDIO
    TITLE "DISC2Track22_21"
    INDEX 01 00:57:00
  TRACK 22 AUDIO
    TITLE "DISC2Track22_22"
    INDEX 01 01:00:52
  TRACK 23 AUDIO
    TITLE "DISC2Track22_23"
    INDEX 01 01:01:02
  TRACK 24 AUDIO
    TITLE "DISC2Track22_24"
    INDEX 01 01:06:07
  TRACK 25 AUDIO
    TITLE "DISC2Track22_25"
    INDEX 01 01:10:25
  TRACK 26 AUDIO
    TITLE "DISC2Track22_26"
    INDEX 01 01:14:38
  TRACK 27 AUDIO
    TITLE "DISC2Track22_27"
    INDEX 01 01:14:66
  TRACK 28 AUDIO
    TITLE "DISC2Track22_28"
    INDEX 01 01:20:41
  TRACK 29 AUDIO
    TITLE "DISC2Track22_29"
    INDEX 01 01:25:22
  TRACK 30 AUDIO
    TITLE "DISC2Track22_30"
    INDEX 01 01:29:73
  TRACK 31 AUDIO
    TITLE "DISC2Track22_31"
    INDEX 01 01:30:21
  TRACK 32 AUDIO
    TITLE "DISC2Track22_32"
    INDEX 01 01:33:49
  TRACK 33 AUDIO
    TITLE "DISC2Track22_33"
    INDEX 01 01:36:08
  TRACK 34 AUDIO
    TITLE "DISC2Track22_34"
    INDEX 01 01:38:31
  TRACK 35 AUDIO
    TITLE "DISC2Track22_35"
    INDEX 01 01:38:52
  TRACK 36 AUDIO
    TITLE "DISC2Track22_36"
    INDEX 01 01:42:68
  TRACK 37 AUDIO
    TITLE "DISC2Track22_37"
    INDEX 01 01:47:51
  TRACK 38 AUDIO
    TITLE "DISC2Track22_38"
    INDEX 01 01:52:27
  TRACK 39 AUDIO
    TITLE "DISC2Track22_39"
    INDEX 01 01:52:49
  TRACK 40 AUDIO
    TITLE "DISC2Track22_40"
    INDEX 01 01:57:32
  TRACK 41 AUDIO
    TITLE "DISC2Track22_41"
    INDEX 01 02:00:48
  TRACK 42 AUDIO
    TITLE "DISC2Track22_42"
    INDEX 01 02:03:70
